# xmcd CD database file
#
# Track frame offsets:
#	150
#	15325
#	32822
#	48002
#	76837
#
# Disc length: 1331 seconds
#
# Revision: 1
# Processed by: cddbd v1.5PL3 Copyright (c) Steve Scherf et al.
# Submitted via: CDex 1.51
#
DISCID=27053105
DTITLE=ゆり＆とっきー - ナ・マ・ス・テ
DYEAR=1900
DGENRE=New Age
TTITLE0=ナ・マ・ス・テ
TTITLE1=リノ女学園校歌(天使の微笑み)
TTITLE2=ナ・マ・ス・テ(インストゥルメンタルバージョン)
TTITLE3=リノ女学園校歌(天使の微笑み)(インストゥルメンタルバージョン)
TTITLE4=２人のプライベートショット(パソコンで見てね)
EXTD=
EXTT0=
EXTT1=
EXTT2=
EXTT3=
EXTT4=
PLAYORDER=
